<?xml version="1.0" standalone="no"?>
<!DOCTYPE svg PUBLIC "-//W3C//DTD SVG 20010904//EN"
 "http://www.w3.org/TR/2001/REC-SVG-20010904/DTD/svg10.dtd">
<svg version="1.0" xmlns="http://www.w3.org/2000/svg"
 width="373.000000pt" height="373.000000pt" viewBox="0 0 373.000000 373.000000"
 preserveAspectRatio="xMidYMid meet">
<metadata>
Created by potrace 1.11, written by Peter Selinger 2001-2013
</metadata>
<g transform="translate(0.000000,373.000000) scale(0.100000,-0.100000)"
fill="#000000" stroke="none">
<path d="M3261 2582 c-38 -6 -106 -82 -126 -142 -16 -48 -18 -102 -19 -489 -2
-394 -4 -441 -20 -486 -42 -115 -106 -171 -206 -182 -73 -7 -138 21 -175 75
l-25 37 60 28 c182 86 288 325 211 476 -77 150 -292 113 -394 -68 -17 -30 -33
-48 -35 -40 -2 8 -17 42 -33 76 -68 140 -166 163 -209 48 -9 -23 -8 -30 2 -34
7 -2 27 -19 44 -37 50 -52 68 -156 51 -291 -16 -125 -90 -241 -168 -265 -71
-21 -70 -23 -70 313 1 274 0 296 -18 326 -15 24 -30 34 -63 40 -25 6 -52 6
-64 0 -20 -8 -20 -15 -17 -215 2 -162 0 -223 -13 -281 -27 -124 -83 -201 -138
-187 -44 11 -50 37 -51 241 -1 105 -5 200 -9 213 -14 42 -99 67 -145 42 -15
-7 -17 -17 -12 -47 4 -21 7 -110 6 -198 -1 -176 -9 -205 -65 -239 -36 -21 -58
-20 -96 3 -105 64 -60 365 70 478 65 56 108 72 206 78 36 2 68 4 73 4 15 2 7
79 -11 101 -38 47 -200 33 -302 -27 -60 -36 -133 -105 -169 -161 -36 -57 -77
-178 -85 -253 -8 -70 -19 -107 -46 -162 -41 -82 -123 -100 -156 -34 -30 57 -6
245 57 457 24 78 19 107 -26 150 -33 32 -35 33 -139 35 -67 2 -111 7 -121 15
-19 16 -19 30 1 30 21 0 46 64 42 108 -2 30 -7 37 -23 34 -11 -1 -107 -5 -212
-7 l-193 -6 -1 88 c0 48 0 129 1 179 1 102 -10 139 -51 160 -32 16 -97 18
-119 4 -12 -7 -13 -15 -4 -39 7 -18 11 -97 10 -208 l-1 -178 -100 0 -100 0 -3
-29 c-8 -69 29 -109 102 -112 23 -1 55 -2 73 -3 l31 -1 0 -353 c-1 -340 0
-354 21 -402 25 -57 51 -80 113 -96 96 -26 198 19 261 114 62 93 107 225 123
357 3 25 7 59 9 75 2 17 4 50 4 75 l1 46 74 -1 c41 0 77 -3 80 -6 4 -3 -3 -35
-14 -70 -113 -352 -91 -545 68 -589 90 -25 168 -4 235 62 26 25 47 43 47 38 0
-18 61 -72 103 -90 78 -36 191 -18 241 38 l18 21 28 -26 c79 -74 213 -68 293
12 27 27 28 28 42 9 8 -10 15 -22 15 -26 0 -3 21 -16 46 -28 38 -19 57 -22
112 -18 122 9 227 80 291 197 l29 54 25 -49 c39 -77 92 -130 165 -166 57 -28
79 -33 149 -35 116 -3 226 39 280 105 11 13 15 12 34 -11 51 -66 89 -87 169
-94 128 -12 234 64 310 221 45 93 49 122 19 160 -29 37 -73 36 -94 -4 -8 -16
-15 -35 -15 -42 0 -27 -50 -119 -82 -152 -64 -66 -154 -55 -179 21 -7 21 -12
70 -11 108 1 60 7 84 42 158 150 319 208 715 130 880 -33 69 -105 103 -189 89z
m80 -195 c22 -83 10 -263 -31 -450 -11 -50 -20 -93 -20 -96 0 -2 -3 -1 -7 2
-12 12 -5 564 7 587 15 29 36 11 51 -43z m-2763 -396 c-5 -41 7 -68 46 -108
25 -25 43 -50 41 -56 -2 -7 -6 -61 -10 -121 -6 -117 -44 -286 -76 -346 -29
-55 -44 -69 -77 -76 -47 -10 -72 22 -72 94 -1 52 -1 195 0 504 l0 117 53 3
c58 3 97 -1 95 -11z m2228 -158 c24 -25 14 -123 -19 -190 -26 -51 -103 -127
-118 -117 -11 6 -3 118 12 181 14 58 33 97 60 124 23 23 42 24 65 2z"/>
</g>
</svg>
